<?xml version="1.0" encoding="UTF-8" standalone="no"?>
<svg width="52px" height="56px" viewBox="0 0 52 56" version="1.1" xmlns="http://www.w3.org/2000/svg" xmlns:xlink="http://www.w3.org/1999/xlink">
    <!-- Generator: Sketch 41.2 (35397) - http://www.bohemiancoding.com/sketch -->
    <title>Page 1</title>
    <desc>Created with Sketch.</desc>
    <defs></defs>
    <g id="Page-1" stroke="none" stroke-width="1" fill="none" fill-rule="evenodd">
        <g fill="#0073E6">
            <path d="M13.746,25.898 C14.621,27.414 15.473,29.16 15.449,32.391 C15.449,37.289 16.375,39.871 17.152,41.18 C17.977,42.555 18.598,43.387 20.289,43.387 C21.898,43.387 22.852,42.023 22.957,40.703 C23.016,40.113 23.027,39.449 23.039,38.746 C23.066,37.121 23.094,35.277 23.676,33.312 C23.914,32.543 24.18,31.664 24.68,30.914 C24.914,30.559 25.434,30.195 25.898,30.195 C26.023,30.195 26.406,30.195 26.832,30.879 C27.32,31.668 27.617,32.539 27.867,33.352 C28.441,35.285 28.691,37.52 28.535,39.336 C28.414,40.723 28.691,41.797 29.363,42.531 C30.094,43.328 30.988,43.391 31.246,43.391 C32.777,43.391 33.504,42.648 34.383,41.184 C35.16,39.879 36.09,37.293 36.086,32.387 C36.062,29.172 36.879,27.484 37.809,25.879 L37.93,25.66 C38.77,24.148 39.559,22.723 39.59,19.383 L39.582,18.844 C39.492,16.418 38.551,14.617 36.695,13.332 C35.207,12.328 33.137,11.773 30.789,11.773 C29.02,11.773 27.156,12.129 25.777,12.727 C24.703,12.258 23.316,11.938 21.848,11.816 C21.805,11.812 21.758,11.812 21.715,11.812 L19.355,11.844 C19.309,11.844 19.262,11.848 19.219,11.852 C17.508,12.047 16,12.559 14.848,13.34 C13,14.613 12.059,16.41 11.969,18.859 C11.965,19.051 11.961,19.223 11.961,19.391 C11.988,22.707 12.773,24.129 13.609,25.637 L13.746,25.898 Z M14.762,18.941 C14.82,17.379 15.301,16.422 16.422,15.656 C17.168,15.148 18.242,14.793 19.461,14.648 L21.68,14.621 C22.844,14.723 23.949,14.98 24.738,15.34 L25.156,15.523 L28.277,17.18 C28.488,17.289 28.711,17.344 28.934,17.344 C29.434,17.344 29.922,17.074 30.172,16.598 C30.535,15.914 30.273,15.066 29.59,14.703 L29.512,14.664 C29.953,14.613 30.402,14.578 30.852,14.578 C32.551,14.578 34.105,14.973 35.105,15.648 C35.93,16.215 36.703,17.012 36.773,18.918 L36.781,19.371 C36.758,21.988 36.246,22.91 35.473,24.305 L35.363,24.504 C34.34,26.273 33.254,28.492 33.281,32.398 C33.281,36.883 32.461,38.926 31.973,39.746 C31.562,40.434 31.402,40.582 31.426,40.582 C31.426,40.582 31.414,40.582 31.398,40.586 C31.352,40.473 31.273,40.184 31.324,39.582 C31.512,37.402 31.23,34.84 30.547,32.547 C30.242,31.547 29.871,30.473 29.211,29.406 C28.406,28.109 27.23,27.398 25.898,27.398 C24.535,27.398 23.141,28.176 22.344,29.371 C21.621,30.465 21.262,31.641 20.98,32.555 C20.301,34.852 20.266,36.988 20.238,38.707 C20.227,39.379 20.219,39.957 20.172,40.457 C20.168,40.492 20.156,40.543 20.145,40.582 L20.125,40.582 C20.039,40.492 19.879,40.27 19.562,39.746 C19.074,38.926 18.254,36.879 18.254,32.406 C18.281,28.484 17.195,26.27 16.188,24.527 L16.051,24.281 C15.281,22.891 14.773,21.973 14.75,19.383 C14.754,19.238 14.758,19.086 14.762,18.941 Z" id="Fill-1"></path>
            <path d="M25.285,55.727 C25.297,55.73 25.312,55.73 25.328,55.734 C25.449,55.77 25.574,55.793 25.707,55.793 L25.824,55.793 C25.969,55.793 26.109,55.77 26.246,55.727 C56.516,46.18 50.824,8.898 50.766,8.523 C50.68,7.992 50.297,7.555 49.777,7.402 L26.219,0.434 C26.09,0.395 25.957,0.375 25.82,0.375 L25.703,0.375 C25.578,0.375 25.461,0.395 25.344,0.426 C25.332,0.43 25.316,0.426 25.305,0.434 L1.746,7.402 C1.23,7.555 0.848,7.988 0.762,8.523 C0.703,8.898 -4.984,46.18 25.285,55.727 Z M3.418,9.832 L24.309,3.652 L24.309,8.543 C24.309,9.316 24.934,9.945 25.707,9.945 C26.48,9.945 27.105,9.316 27.105,8.543 L27.105,3.617 L48.109,9.832 C48.398,12.305 49.02,19.766 47.262,27.867 C44.574,40.246 37.789,48.5 27.105,52.453 L27.105,44.695 C27.105,43.922 26.48,43.297 25.707,43.297 C24.934,43.297 24.309,43.922 24.309,44.695 L24.309,52.41 C13.688,48.441 6.941,40.199 4.266,27.867 C2.504,19.766 3.129,12.309 3.418,9.832 Z" id="Fill-2"></path>
        </g>
    </g>
</svg>