<?xml version="1.0" encoding="UTF-8"?>
<!DOCTYPE svg PUBLIC "-//W3C//DTD SVG 1.1//EN" "http://www.w3.org/Graphics/SVG/1.1/DTD/svg11.dtd">
<!-- Creator: CorelDRAW 2019 (64-Bit) -->
<svg xmlns="http://www.w3.org/2000/svg" xml:space="preserve" width="150mm" height="150mm" version="1.1" style="shape-rendering:geometricPrecision; text-rendering:geometricPrecision; image-rendering:optimizeQuality; fill-rule:evenodd; clip-rule:evenodd"
viewBox="0 0 15000 15000"
 xmlns:xlink="http://www.w3.org/1999/xlink"
 xmlns:xodm="http://www.corel.com/coreldraw/odm/2003">
 <defs>
  <style type="text/css">
   <![CDATA[
    .str0 {stroke:#FEFEFE;stroke-width:50;stroke-miterlimit:22.9256}
    .fil1 {fill:#66BEE3}
    .fil2 {fill:#66BEE3;fill-rule:nonzero}
    .fil0 {fill:url(#id0)}
   ]]>
  </style>
  <linearGradient id="id0" gradientUnits="userSpaceOnUse" x1="744.99" y1="4002.46" x2="4317.01" y2="4002.46">
   <stop offset="0" style="stop-opacity:1; stop-color:#A4D7ED"/>
   <stop offset="1" style="stop-opacity:1; stop-color:#FEFEFE"/>
  </linearGradient>
 </defs>
 <g id="Слой_x0020_1">
  <metadata id="CorelCorpID_0Corel-Layer"/>
  <path class="fil0 str0" d="M2532.27 6182.72c-1193.97,-642.37 -1862.43,-1830.21 -1780.54,-3796.89 669.87,-69.1 1256.02,-268.42 1780.54,-563.61 493.35,273.59 1061.04,483.47 1780.53,563.23 69.66,2226.86 -734.42,3187.45 -1780.53,3797.27z"/>
  <path class="fil1" d="M2533 6182.72c-1153.95,-620.84 -1800,-1768.86 -1720.85,-3669.63 647.41,-66.78 1213.91,-259.41 1720.85,-544.72 476.82,264.42 1025.48,467.27 1720.85,544.35 67.32,2152.23 -709.8,3080.62 -1720.85,3670z"/>
  <path class="fil2" d="M7435.44 2889.72c59.79,0 116.26,11.46 169.4,34.38 53.15,22.91 99.32,54.14 138.51,93.66 39.19,39.53 70.25,85.86 93.17,139.01 22.92,53.14 34.38,109.61 34.38,169.4 0,59.78 -11.46,116.25 -34.38,169.4 -22.92,53.14 -53.98,99.31 -93.17,138.5 -39.19,39.2 -85.36,70.25 -138.51,93.17 -53.14,22.92 -109.61,34.38 -169.4,34.38l-276.02 0 0 -871.9 276.02 0zm369.69 438.44c0,-48.49 -9.3,-95.16 -27.9,-140 -18.6,-44.84 -44.01,-84.54 -76.23,-119.08 -32.22,-34.54 -70.08,-62.11 -113.6,-82.71 -43.51,-20.59 -90.18,-30.89 -140,-30.89l-197.3 0c-7.31,0 -13.28,2.5 -17.93,7.48 -4.65,4.98 -6.98,11.12 -6.98,18.43l0 689.55c0,7.31 2.33,13.29 6.98,17.94 4.65,4.65 10.62,6.97 17.93,6.97l197.3 0c48.5,0 94.5,-10.13 138.01,-30.39 43.51,-20.26 81.54,-47.5 114.1,-81.71 32.55,-34.21 58.29,-73.4 77.22,-117.58 18.93,-44.18 28.4,-90.18 28.4,-138.01z"/>
  <path id="1" class="fil2" d="M8430.91 3695.85c51.15,0 99.15,-9.63 143.99,-28.89 44.84,-19.27 84.03,-45.51 117.58,-79.06 33.55,-33.54 60.12,-72.9 79.72,-117.91 19.6,-45.17 29.39,-93.17 29.39,-144.32 0,-51.15 -9.79,-98.98 -29.39,-143.82 -19.6,-44.68 -46.17,-83.87 -79.72,-117.42 -33.55,-33.55 -72.74,-59.79 -117.58,-79.05 -44.84,-19.27 -92.84,-28.9 -143.99,-28.9 -51.15,0 -99.15,9.63 -143.99,28.9 -44.84,19.26 -84.03,45.5 -117.58,79.05 -33.55,33.55 -59.95,72.74 -79.22,117.42 -19.26,44.84 -28.9,92.67 -28.9,143.82 0,51.15 9.64,99.15 28.9,144.32 19.27,45.01 45.67,84.37 79.22,117.91 33.55,33.55 72.74,59.79 117.58,79.06 44.84,19.26 92.84,28.89 143.99,28.89zm0.5 -805.14c60.45,0 117.25,11.46 170.06,34.38 52.98,22.92 98.98,53.98 138.18,93.17 39.19,39.19 70.41,85.36 93.33,138.51 22.92,53.14 34.38,109.61 34.38,169.4 0,60.45 -11.46,117.08 -34.38,169.89 -22.92,52.82 -54.14,98.99 -93.33,138.51 -39.2,39.53 -85.2,70.58 -138.18,93.17 -52.81,22.59 -109.61,33.88 -170.06,33.88 -59.79,0 -116.42,-11.29 -169.57,-33.88 -53.31,-22.59 -99.48,-53.64 -138.67,-93.17 -39.19,-39.52 -70.42,-85.69 -93.33,-138.51 -22.92,-52.81 -34.38,-109.44 -34.38,-169.89 0,-59.79 11.46,-116.26 34.38,-169.4 22.91,-53.15 54.14,-99.32 93.33,-138.51 39.19,-39.19 85.36,-70.25 138.67,-93.17 53.15,-22.92 109.78,-34.38 169.57,-34.38z"/>
  <path id="2" class="fil2" d="M9413.42 2955.48c-51.15,0 -99.15,9.64 -143.99,28.9 -44.84,19.27 -84.2,45.67 -118.08,79.22 -33.88,33.55 -60.62,72.74 -80.22,117.58 -19.59,44.84 -29.39,92.84 -29.39,143.99 0,50.49 9.63,98.15 28.9,142.99 19.26,44.84 45.67,84.2 79.22,118.08 33.54,33.88 72.57,60.62 117.08,80.22 44.51,19.6 92.34,29.39 143.49,29.39 49.16,0 96.49,-9.3 142,-27.9 45.5,-18.6 85.86,-45.5 121.06,-80.71l46.84 46.83c-41.19,41.19 -88.52,72.74 -142,94.67 -53.47,21.92 -109.11,32.88 -166.9,32.88 -59.79,0 -116.26,-11.46 -169.4,-34.38 -53.15,-22.92 -99.32,-54.14 -138.51,-93.67 -39.19,-39.52 -70.25,-85.86 -93.17,-139 -22.92,-53.15 -34.38,-109.61 -34.38,-169.4 0,-59.79 11.46,-116.25 34.38,-169.4 22.92,-53.14 53.98,-99.31 93.17,-138.51 39.19,-39.19 85.36,-70.25 138.51,-93.16 53.14,-22.92 109.61,-34.38 169.4,-34.38 57.79,0 113.43,10.96 166.9,32.88 53.48,21.92 100.81,53.48 142,94.66l-46.84 45.84c-34.54,-34.54 -74.23,-61.11 -119.07,-79.72 -44.84,-18.6 -91.84,-27.9 -141,-27.9z"/>
  <path id="3" class="fil2" d="M9800.04 2955.48l0 -65.76 716.46 0 0 65.76 -286.98 0c-10.63,0 -19.77,3.66 -27.4,10.96 -7.64,7.31 -11.46,16.61 -11.46,27.91l0 767.27 -64.77 0 0 -767.27c0,-11.3 -3.82,-20.6 -11.46,-27.91 -7.64,-7.3 -17.11,-10.96 -28.4,-10.96l-285.99 0z"/>
  <path id="4" class="fil2" d="M10991.81 3695.85c51.15,0 99.15,-9.63 143.99,-28.89 44.84,-19.27 84.03,-45.51 117.58,-79.06 33.55,-33.54 60.12,-72.9 79.72,-117.91 19.6,-45.17 29.39,-93.17 29.39,-144.32 0,-51.15 -9.79,-98.98 -29.39,-143.82 -19.6,-44.68 -46.17,-83.87 -79.72,-117.42 -33.55,-33.55 -72.74,-59.79 -117.58,-79.05 -44.84,-19.27 -92.84,-28.9 -143.99,-28.9 -51.15,0 -99.15,9.63 -143.99,28.9 -44.84,19.26 -84.03,45.5 -117.58,79.05 -33.55,33.55 -59.95,72.74 -79.22,117.42 -19.26,44.84 -28.9,92.67 -28.9,143.82 0,51.15 9.64,99.15 28.9,144.32 19.27,45.01 45.67,84.37 79.22,117.91 33.55,33.55 72.74,59.79 117.58,79.06 44.84,19.26 92.84,28.89 143.99,28.89zm0.5 -805.14c60.45,0 117.25,11.46 170.06,34.38 52.98,22.92 98.98,53.98 138.18,93.17 39.19,39.19 70.41,85.36 93.33,138.51 22.92,53.14 34.38,109.61 34.38,169.4 0,60.45 -11.46,117.08 -34.38,169.89 -22.92,52.82 -54.14,98.99 -93.33,138.51 -39.2,39.53 -85.2,70.58 -138.18,93.17 -52.81,22.59 -109.61,33.88 -170.06,33.88 -59.79,0 -116.42,-11.29 -169.57,-33.88 -53.31,-22.59 -99.48,-53.64 -138.67,-93.17 -39.19,-39.52 -70.42,-85.69 -93.33,-138.51 -22.92,-52.81 -34.38,-109.44 -34.38,-169.89 0,-59.79 11.46,-116.26 34.38,-169.4 22.91,-53.15 54.14,-99.32 93.33,-138.51 39.19,-39.19 85.36,-70.25 138.67,-93.17 53.15,-22.92 109.78,-34.38 169.57,-34.38z"/>
  <path id="5" class="fil2" d="M12317.1 3126.87c0,21.26 -3.15,42.02 -9.47,62.28 -6.31,20.27 -14.94,39.53 -25.9,57.8 -10.96,18.27 -24.25,34.87 -39.86,49.82 -15.61,14.95 -32.72,27.4 -51.32,37.37 -11.96,6.64 -25.91,11.96 -41.85,15.94 -9.3,2.66 -16.77,6.65 -22.42,11.96 -5.65,5.31 -8.47,12.95 -8.47,22.92 0,3.32 3.99,13.95 11.96,31.88 7.97,17.94 18.1,39.7 30.39,65.27 12.29,25.58 25.91,53.15 40.85,82.71 14.95,29.56 29.23,57.79 42.85,84.7 13.62,26.9 25.58,50.65 35.87,71.25 10.3,20.59 17.11,34.21 20.43,40.85l-74.73 0 -203.28 -403.57 -337.8 0c-11.29,0 -20.76,3.82 -28.4,11.46 -7.64,7.64 -11.46,17.11 -11.46,28.4l0 363.71 -62.78 0 0 -871.9 501.22 0c32.55,0 63.11,6.31 91.68,18.93 28.56,12.62 53.47,29.56 74.73,50.82 21.26,21.26 37.87,46.34 49.82,75.23 11.96,28.9 17.94,59.62 17.94,92.17zm-234.17 165.42c22.59,0 44.01,-4.49 64.27,-13.45 20.27,-8.97 38.2,-20.93 53.81,-35.88 15.61,-14.94 27.9,-32.55 36.87,-52.81 8.97,-20.26 13.45,-41.69 13.45,-64.27 0,-24.58 -4.48,-47.17 -13.45,-67.76 -8.97,-20.59 -21.09,-38.53 -36.37,-53.81 -15.28,-15.28 -33.38,-27.24 -54.31,-35.87 -20.92,-8.64 -43.67,-12.96 -68.25,-12.96l-394.6 0c-11.29,0 -20.76,3.66 -28.4,10.96 -7.64,7.31 -11.46,16.61 -11.46,27.91l0 259.08c0,11.29 3.82,20.59 11.46,27.9 7.64,7.3 17.11,10.96 28.4,10.96l398.58 0z"/>
  <path class="fil2" d="M5379.85 4607.75c0,11.72 3.9,21.49 11.72,29.31 7.82,7.82 17.1,11.72 27.84,11.72l754.7 0 0 96.72 -754.7 0c-10.74,0 -20.02,3.91 -27.84,11.73 -7.82,7.81 -11.72,17.09 -11.72,27.84l0 416.18c0,10.75 3.9,20.03 11.72,27.85 7.82,7.81 17.1,11.72 27.84,11.72l754.7 0 0 96.72 -890.98 0 0 -1282.26 890.98 1.47 0 95.25 -754.7 0c-10.74,0 -20.02,4.15 -27.84,12.46 -7.82,8.3 -11.72,17.82 -11.72,28.57l0 414.72z"/>
  <polygon id="1" class="fil2" points="6943.47,5220.3 7466.63,4055.28 7572.15,4055.28 6996.23,5337.54 6889.25,5337.54 6313.33,4055.28 6420.31,4055.28 "/>
  <polygon id="2" class="fil2" points="7806.62,5337.54 7806.62,4055.28 7903.34,4055.28 7903.34,5337.54 "/>
  <path id="3" class="fil2" d="M8638.98 4055.28c87.93,0 170.97,16.85 249.13,50.56 78.16,33.7 146.05,79.62 203.69,137.75 57.65,58.13 103.32,126.27 137.02,204.43 33.71,78.15 50.56,161.2 50.56,249.12 0,87.93 -16.85,170.97 -50.56,249.13 -33.7,78.15 -79.37,146.05 -137.02,203.69 -57.64,57.64 -125.53,103.32 -203.69,137.02 -78.16,33.71 -161.2,50.56 -249.13,50.56l-405.92 0 0 -1282.26 405.92 0zm543.68 644.79c0,-71.31 -13.68,-139.95 -41.03,-205.89 -27.36,-65.95 -64.72,-124.32 -112.11,-175.12 -47.38,-50.8 -103.07,-91.35 -167.06,-121.63 -63.99,-30.29 -132.62,-45.43 -205.89,-45.43l-290.16 0c-10.74,0 -19.54,3.66 -26.38,10.99 -6.83,7.33 -10.25,16.36 -10.25,27.11l0 1014.08c0,10.75 3.42,19.54 10.25,26.38 6.84,6.84 15.64,10.26 26.38,10.26l290.16 0c71.32,0 138.97,-14.9 202.96,-44.69 63.99,-29.8 119.92,-69.86 167.8,-120.17 47.87,-50.31 85.72,-107.96 113.57,-172.92 27.84,-64.97 41.76,-132.63 41.76,-202.97z"/>
  <path id="4" class="fil2" d="M9610.57 4607.75c0,11.72 3.9,21.49 11.72,29.31 7.82,7.82 17.1,11.72 27.84,11.72l754.7 0 0 96.72 -754.7 0c-10.74,0 -20.02,3.91 -27.84,11.73 -7.82,7.81 -11.72,17.09 -11.72,27.84l0 416.18c0,10.75 3.9,20.03 11.72,27.85 7.82,7.81 17.1,11.72 27.84,11.72l754.7 0 0 96.72 -890.98 0 0 -1282.26 890.98 1.47 0 95.25 -754.7 0c-10.74,0 -20.02,4.15 -27.84,12.46 -7.82,8.3 -11.72,17.82 -11.72,28.57l0 414.72z"/>
  <polygon id="5" class="fil2" points="11685.63,5182.2 11685.63,4055.28 11780.88,4055.28 11780.88,5337.54 11695.89,5337.54 10736.03,4200.36 10736.03,5337.54 10639.31,5337.54 10639.31,4055.28 10725.77,4055.28 "/>
  <path id="6" class="fil2" d="M12636.7 4152c-75.23,0 -145.81,14.16 -211.76,42.5 -65.94,28.33 -123.83,67.16 -173.65,116.5 -49.83,49.34 -89.15,106.98 -117.97,172.92 -28.82,65.95 -43.23,136.53 -43.23,211.76 0,74.25 14.17,144.34 42.5,210.29 28.33,65.94 67.16,123.83 116.5,173.65 49.34,49.83 106.73,89.15 172.19,117.97 65.46,28.82 135.8,43.23 211.02,43.23 72.3,0 141.91,-13.68 208.83,-41.03 66.92,-27.36 126.27,-66.92 178.05,-118.7l68.88 68.87c-60.58,60.58 -130.18,106.98 -208.83,139.22 -78.64,32.24 -160.47,48.36 -245.46,48.36 -87.93,0 -170.97,-16.85 -249.13,-50.56 -78.15,-33.7 -146.05,-79.62 -203.69,-137.75 -57.64,-58.13 -103.32,-126.27 -137.02,-204.43 -33.71,-78.15 -50.56,-161.2 -50.56,-249.12 0,-87.93 16.85,-170.97 50.56,-249.13 33.7,-78.15 79.38,-146.05 137.02,-203.69 57.64,-57.64 125.54,-103.32 203.69,-137.02 78.16,-33.71 161.2,-50.56 249.13,-50.56 84.99,0 166.82,16.12 245.46,48.36 78.65,32.24 148.25,78.64 208.83,139.22l-68.88 67.41c-50.8,-50.81 -109.18,-89.88 -175.12,-117.24 -65.94,-27.35 -135.06,-41.03 -207.36,-41.03z"/>
  <path id="7" class="fil2" d="M13397.27 4607.75c0,11.72 3.9,21.49 11.72,29.31 7.82,7.82 17.1,11.72 27.84,11.72l754.7 0 0 96.72 -754.7 0c-10.74,0 -20.02,3.91 -27.84,11.73 -7.82,7.81 -11.72,17.09 -11.72,27.84l0 416.18c0,10.75 3.9,20.03 11.72,27.85 7.82,7.81 17.1,11.72 27.84,11.72l754.7 0 0 96.72 -890.98 0 0 -1282.26 890.98 1.47 0 95.25 -754.7 0c-10.74,0 -20.02,4.15 -27.84,12.46 -7.82,8.3 -11.72,17.82 -11.72,28.57l0 414.72z"/>
 </g>
</svg>
